<?xml version="1.0" encoding="UTF-8"?>
<svg id="Layer_1" xmlns="http://www.w3.org/2000/svg" version="1.1" viewBox="0 0 4000 4000">
  <!-- Generator: Adobe Illustrator 29.4.0, SVG Export Plug-In . SVG Version: 2.1.0 Build 152)  -->
  <defs>
    <style>
      .st0 {
        isolation: isolate;
        opacity: .3;
      }
    </style>
  </defs>
  <path class="st0" d="M2871.2,201h-1717.4c-136.3,0-247.7,111.5-247.7,247.7v3128.7c0,121.9,99.7,221.6,221.6,221.6h1740.7c124.1,0,225.6-101.5,225.6-225.6V423.6c0-122.5-100.2-222.7-222.7-222.7ZM2873.8,3364.8c0,96.4-78.9,175.3-175.3,175.3h-1391.1c-106.8,0-194.2-87.4-194.2-194.2V609.7c0-97.3,79.6-177,177-177h1393.8c104.4,0,189.8,85.4,189.8,189.8v2742.2ZM2679.2,574.8h-1358.4c-6.6,0-12,5.4-12,12v2773.7c0,6.6,5.4,12,12,12h1358.4c6.6,0,12-5.4,12-12V586.8c0-6.6-5.4-12-12-12ZM2545.4,1701.8h-64.5c41.2,81.1,64.5,173.6,64.5,271.8,0,258.1-161.2,477-384.4,553.1l370.1,617.4h-1062.1l365.9-610.5c-234.4-69-406.2-293.6-406.2-560.1s23.3-190.7,64.5-271.8h-67.1v-867.4h1119.3v867.4ZM1560.7,1650.1h-61.7v-737.9h1001.9v737.9h-61.7c-102.9-129-261.4-211.7-439.3-211.7s-336.4,82.7-439.3,211.7ZM1499.1,2000c0-276.7,224.3-500.9,500.9-500.9s500.9,224.3,500.9,500.9-143.2,408.7-341.9,475.2l-144.8-250.8-149.1,258.2c-211.2-58.9-366.1-252.6-366.1-482.6ZM2422.7,3086.5h-845.4l422.7-750.9,422.7,750.9Z"/>
</svg>