<?xml version="1.0" encoding="UTF-8"?>
<svg xmlns="http://www.w3.org/2000/svg" version="1.1" viewBox="0 0 4000 4000">
  <!-- Generator: Adobe Illustrator 28.7.0, SVG Export Plug-In . SVG Version: 1.2.0 Build 4)  -->
  <g>
    <g id="katman_1">
      <path d="M171.9,2516.1l-.3-1881.6c0-26.5-1.1-53.7,1.4-80.1,11.2-117,97.7-206.3,212.1-229.3,35.5-7.2,77.5-3.1,114-3.1h210.9s2803.1,0,2803.1,0c32.9,0,67.9-2.6,100.4,1,108.7,12.2,199.2,118.5,215.8,222.7,2.9,18.1,1.4,38.7,1.4,57l.9,1911.5c-20.8,4.5-48.7,1.2-70.4,1.2h-166.4c-2.1-9.1-.7-20.9-.7-30.4l.2-1732.3c-.2-142.1-85.4-199.2-214.5-199.9l-85.9-.2H669.5c-29.6,0-61.2-2.1-90.7,1.1-78.2,8.6-160.1,69.9-168.9,152.6-2.1,19.8-.5,41.3-.5,61.3l.9,1748.3-238.5.2ZM259.5,2679.9c-27.7,0-58.3-2.6-87.6-2.3.1,52.2-2.7,106.6,6.8,158.3,20.2,110.7,112.7,218.2,228.1,233,36.1,4.6,75.3,1.6,111.7,1.5h3051.7c67.5-.6,125.8-28.3,172.8-76.5l2.6-2.7c65.9-74.6,80.5-137.4,80.5-231.6l-.9-80.6-3565.8,1ZM2656.2,3422.3h-75.4c-111.3,0-212.8-47.9-232.6-169.8-2.1-12.8-2.1-25.8-4.2-38.7h-664.6c0-.1-18.2,1.3-18.2,1.3-3.9,6.9-3.7,15.5-4.9,23.2-12.3,82.5-69.8,152.5-150.9,175.7l-10.4,3c-107.9,32.4-239.9-48.9-320.2,99-22.7,41.8-20.1,91.4-20.7,137.4l1171.2.8h522.8c-.6-141.2-33.1-231.9-191.9-232ZM3445.8,2515.6h-24.4c0,.1-2863.1,0-2863.1,0-2.7-38.8,0-79.1,0-118.1V805c0-37.3-14.1-79.4,30.7-89.6l2815.3-.5c50.3,2.4,40.6,54.6,40.6,89.2l.9,1711.5ZM1976.2,2142.3c-27.2-24.7-49.6-55.3-67.3-91.7-27.4-56.1-41-120.5-41-193.3s9.6-115.9,28.6-164.3h-363.9v-510.7c-79.6,101-127,228.4-127,367,0,320.1,253.5,581,570.7,593ZM2592.3,1550.3c0-327.7-265.7-593.4-593.4-593.4s-179.8,21.1-257.8,58.8v503h325.5v1.1c42.1-16.1,95.2-24.1,159.3-24.1s128.4,7,164.8,21c36.4,14,66.7,35.8,90.7,65.3,24,29.5,42.1,66.9,54.2,112.2l-198.1,37.3c-8.2-26.5-22-46.7-41.5-60.8-19.5-14-44.4-21-74.6-21-45,0-80.9,16.5-107.7,49.5-26.8,33-40.1,85.2-40.1,156.7s13.5,130.1,40.6,162.6c27,32.5,64.8,48.8,113.1,48.8s44.9-3.5,65.7-10.5c14.9-5,31.3-12.5,49.2-22.6,7.6-5.4,15.1-11,22.4-16.7v-62.6h-137.4v-145.9h305.7c37.9-78.2,59.2-166,59.2-258.7Z"/>
    </g>
  </g>
</svg>