<svg xmlns="http://www.w3.org/2000/svg" viewBox="0 0 685 461">  
  <g>
    <path fill="currentColor" d="M40.6,410.7h74.2v13.3H17.8v-92h22.8v78.7ZM136.4,344.6c14.4-8.5,34.7-14,56.8-14s42.4,5.4,57.1,14c14.2,8.6,23.5,20.3,23.5,33.3s-9.2,24.8-23.5,33.3c-14.7,8.7-34.7,14-57.1,14s-42.4-5.3-56.8-14c-14.2-8.6-23.5-20.3-23.5-33.3s9.2-24.8,23.5-33.3ZM234.1,354.1c-10.6-6.2-25.3-10-40.8-10s-30,3.8-40.4,10-16.9,14.5-16.9,23.8,6.6,17.8,16.9,23.8,24.8,10,40.4,10,30.2-3.8,40.8-10c10.1-6.1,16.7-14.4,16.7-23.8s-6.5-17.8-16.7-23.8ZM322.6,424.4v-79.1h-47.9v-13.4h118.2v13.4h-47.6v79.1h-22.7ZM412.8,396.3v-64.4h23v64.5c0,10.1,18.7,15.1,35.4,15.1s35.2-5.1,35.2-15.3v-64.4h23v64.5c0,18.7-31.1,28.4-58.2,28.4s-58.4-9.7-58.4-28.6ZM640.4,355.6c-3.2-8.3-18.5-11.9-32.3-11.7-10.6.1-22.3,2.2-28.7,7-2.8,1.9-4.3,5.2-3.8,8.6,1.1,9.5,19,10.7,35.9,11.6,21.7,1.6,48.5,4.9,54.6,19.6.7,1.9,1.1,4,1.1,6.1,0,17.8-30.2,28-58.7,28s-53.9-8.4-56.8-24.9l-.2-2.5,23-.3.2,2v-.5c1.6,8.6,19.4,13,34.1,13s35.4-5.5,35.4-15c0-1.1-.3-2.2-.7-3.2-2.7-7-18.9-8.2-34.7-9.1-24.6-1.5-53.5-4.6-56-23.8h0c-.9-6,1.8-12.2,8.6-17.4,10.6-8,29.5-12.2,47.8-12.2s49.6,7.4,53.7,24.2l-22.5.5Z"/>
    <path fill="currentColor" d="M335.1,109.3c3.1-3.3,6.4-6.6,9.7-9.7,8.8-8.3,18.2-16.1,28.1-23.2-11.6-14.4-24.2-27.9-37.6-40.6-13.5,12.7-26.1,26.4-37.7,40.8,9.8,7,19.1,14.7,27.9,23,3.3,3.1,6.6,6.4,9.7,9.7h0ZM586.4,199.6c14.7,5.9,28.9,13.1,42.3,21.5-27,49-60.3,86-110.8,90.2,35.2-24.5,56.1-66,68.5-111.7ZM515.9,73.4c15.7,43.6,15.8,92.4,3.1,136.8-11.6,40.7-35.2,80.6-69.8,105.7,79.3-5,131.6-74.6,137-256.4l-70.3,13.9ZM485.7,51.1c63.1,108-3.4,273-114.4,273s-69.6-58.6-69.6-99c0-94.9,117.3-174,184-174Z"/>
    <path fill="currentColor" d="M184.6,51.1c40.1,0,98.4,28.5,138.6,71.9-17.6,21.8-31.1,47-36.8,74.4-1.9,9.1-2.8,18.4-2.8,27.7,0,35.2,9.5,73.7,33.7,96.6-5.9,1.6-12.1,2.4-18.2,2.4-111,0-177.5-165-114.4-273ZM83.9,199.6c-14.7,5.9-28.9,13.1-42.3,21.5,27,49,60.3,86,110.7,90.2-35.2-24.5-56.1-66-68.5-111.7ZM154.4,73.4l-70.3-13.8c5.4,181.8,57.7,251.4,137,256.4-34.6-25.2-58.2-65.1-69.8-105.8-12.7-44.4-12.6-93.2,3.1-136.8Z"/>
  </g>
</svg>