<?xml version="1.0" encoding="UTF-8"?>
<svg id="Layer_5" data-name="Layer 5" xmlns="http://www.w3.org/2000/svg" viewBox="0 0 4365 1370">
  <defs>
    <style>
      .cls-1 {
        fill: #d1d6ed;
      }

      .cls-2 {
        fill: #16a34a;
      }
    </style>
  </defs>
  <polygon class="cls-2" points="918.78 433.16 1055.42 535.38 1108.82 390.23 1227.61 321.51 1317.55 408.89 1368.84 531.66 1390.36 535.38 1497.15 485.33 1560.26 428.45 1560.26 573.93 1536.43 704.99 1449.09 799.26 1353.14 865.18 1210.76 865.18 1102.32 865.18 1006.68 799.26 948.63 738.97 895.24 598.28 895.24 531.66 895.24 413.74 918.78 433.16"/>
  <path class="cls-1" d="M116.92,1230.09l14.3-187.74h46.19l29.8,92.98c2.18,6.76,4.57,14.5,7.15,23.24,2.58,8.74,4.67,17.09,6.26,25.03h.89c1.79-8.14,3.97-16.73,6.56-25.78,2.58-9.04,4.77-16.54,6.56-22.5l29.2-92.98h46.19l14.9,187.74h-34.87l-5.36-81.65c-.8-10.53-1.39-22.15-1.79-34.87-.4-12.71-.6-24.53-.6-35.46h-.6c-2.58,11.32-5.62,23-9.09,35.02-3.48,12.02-6.91,23.2-10.28,33.52l-26.82,83.44h-29.5l-27.42-83.44c-3.38-10.53-6.66-21.7-9.83-33.52-3.18-11.82-6.06-23.49-8.64-35.02h-.89c0,11.13-.3,23.15-.89,36.06-.6,12.92-1.29,24.34-2.09,34.27l-5.07,81.65h-34.27ZM406.28,1230.09l71.82-187.74h36.36l71.22,187.74h-38.14l-16.69-46.19h-70.33l-16.39,46.19h-37.85ZM469.16,1156.78h52.45l-9.83-27.71c-2.78-7.94-5.51-15.99-8.19-24.14-2.68-8.14-5.21-16.09-7.6-23.84h-.6c-2.19,7.75-4.67,15.64-7.45,23.69-2.78,8.05-5.66,16.14-8.64,24.29l-10.13,27.71ZM670,1230.09v-187.74h67.95c13.71,0,25.18,2.53,34.42,7.6,9.24,5.07,16.24,11.92,21.01,20.56,4.77,8.64,7.15,18.43,7.15,29.35,0,9.94-1.94,18.43-5.81,25.48-3.87,7.05-8.64,12.81-14.3,17.28s-11.38,7.9-17.14,10.28l47.38,77.18h-41.42l-38.74-70.63h-24.73v70.63h-35.76ZM705.76,1131.16h17.88c11.32,0,20.71-2.38,28.16-7.15,7.45-4.77,11.17-12.52,11.17-23.24,0-9.93-3.03-17.48-9.09-22.65-6.06-5.16-14.65-7.75-25.78-7.75h-22.35v60.79ZM896.48,1230.09v-187.74h36.36v80.76l69.14-80.76h45.3l-72.71,82.25,78.67,105.49h-45l-59.9-82.25-15.5,16.99v65.26h-36.36ZM1134.88,1230.09v-187.74h119.2v28.61h-82.84v47.38h75.1v28.31h-75.1v54.83h83.74v28.61h-120.09ZM1382.22,1230.09v-158.54h-53.94v-29.2h145.12v29.2h-54.83v158.54h-36.36ZM1557.44,1230.09v-187.74h36.36v187.74h-36.36ZM1696.9,1230.09v-187.74h32.78l63.18,90.89c5.16,7.75,10.28,15.75,15.35,23.99,5.07,8.25,9.09,15.85,12.07,22.8h.6c-.8-9.33-1.29-18.77-1.49-28.31-.2-9.54-.3-19.07-.3-28.61v-80.76h34.57v187.74h-32.78l-64.37-90.59c-4.97-7.55-9.74-15.35-14.3-23.39-4.57-8.05-8.64-16.34-12.22-24.88h-.6c.79,10.33,1.29,20.46,1.49,30.4.2,9.94.3,19.97.3,30.1v78.37h-34.27ZM2043.77,1233.07c-18.08,0-34.42-3.73-49.02-11.18-14.6-7.45-26.22-18.33-34.87-32.63-8.64-14.3-12.96-31.89-12.96-52.75s4.22-38.84,12.67-53.34c8.44-14.5,20.01-25.48,34.72-32.93,14.7-7.45,31.19-11.17,49.47-11.17,11.32,0,21.5.94,30.54,2.83,9.04,1.89,17.23,4.62,24.59,8.2l-7.75,25.63c-6.96-3.38-14.11-5.81-21.46-7.3-7.35-1.49-14.8-2.24-22.35-2.24-10.93,0-21.11,2.34-30.54,7-9.44,4.67-16.99,12.17-22.65,22.5-5.66,10.33-8.49,23.94-8.49,40.83,0,22.25,5.07,39.39,15.2,51.41,10.13,12.02,24.54,18.03,43.21,18.03,11.52,0,20.56-1.29,27.12-3.87v-46.49h-32.48v-27.42h67.05v93.57c-7.95,3.18-16.99,5.86-27.12,8.05-10.13,2.18-21.75,3.28-34.87,3.28ZM2383.79,1233.07c-10.73,0-21.21-1.09-31.44-3.28-10.23-2.18-20.02-5.46-29.35-9.83l8.34-27.71c8.54,4.17,16.88,7.35,25.03,9.54,8.14,2.19,16.69,3.28,25.63,3.28,10.53,0,18.87-2.09,25.03-6.26,6.16-4.17,9.24-10.23,9.24-18.18,0-5.76-2.19-10.88-6.56-15.35-4.37-4.47-13.31-8.89-26.82-13.26l-16.39-5.36c-13.91-4.77-24.99-11.07-33.23-18.92-8.25-7.85-12.37-18.92-12.37-33.23,0-16.49,5.81-29.85,17.43-40.08,11.62-10.23,28.26-15.35,49.92-15.35,11.12,0,21.26,1.04,30.4,3.13,9.14,2.09,17.38,5.12,24.73,9.09l-8.34,28.01c-7.95-3.97-15.6-7-22.95-9.09-7.35-2.09-14.6-3.13-21.75-3.13-10.33,0-18.33,2.14-23.99,6.41-5.66,4.27-8.49,9.98-8.49,17.13,0,6.76,2.38,12.02,7.15,15.79,4.77,3.78,12.22,7.35,22.35,10.73l18.18,5.96c15.5,4.97,27.31,12.07,35.46,21.31,8.14,9.24,12.22,20.12,12.22,32.63,0,10.73-2.73,20.32-8.2,28.76-5.47,8.45-13.36,15.1-23.69,19.97-10.33,4.87-22.85,7.3-37.55,7.3ZM2628.14,1233.07c-17.48,0-33.08-3.73-46.79-11.18-13.71-7.45-24.49-18.37-32.33-32.78-7.85-14.4-11.77-32.04-11.77-52.9s4.02-37.65,12.07-52.15c8.05-14.5,19.02-25.63,32.93-33.38,13.9-7.75,29.6-11.62,47.08-11.62s33.08,3.78,46.79,11.32c13.71,7.55,24.48,18.53,32.33,32.93,7.85,14.41,11.77,32.03,11.77,52.89s-4.02,37.9-12.07,52.3c-8.05,14.41-19.03,25.43-32.93,33.08-13.91,7.65-29.6,11.47-47.08,11.47ZM2629.33,1205.06c9.73,0,18.52-2.53,26.37-7.6,7.85-5.07,14.1-12.67,18.77-22.8,4.67-10.13,7-22.95,7-38.44s-2.44-29.2-7.3-39.34c-4.87-10.13-11.32-17.63-19.37-22.5-8.05-4.87-16.94-7.3-26.67-7.3s-18.53,2.53-26.37,7.6c-7.85,5.07-14.11,12.72-18.77,22.95-4.67,10.23-7,23.09-7,38.59s2.43,28.31,7.3,38.44c4.87,10.13,11.32,17.73,19.37,22.8,8.05,5.07,16.93,7.6,26.67,7.6ZM2814.09,1230.09v-187.74h36.36v158.54h77.18v29.2h-113.54ZM3082,1233.07c-24.04,0-42.91-6.36-56.62-19.07-13.71-12.71-20.56-32.58-20.56-59.6v-112.05h36.36v112.35c0,17.09,3.28,29.7,9.83,37.85,6.56,8.15,16.88,12.22,30.99,12.22s24.33-4.32,30.69-12.96c6.36-8.64,9.54-19.82,9.54-33.53v-115.92h36.36v113.54c0,25.83-6.56,45.15-19.67,57.96-13.11,12.81-32.09,19.22-56.92,19.22ZM3295.66,1230.09v-158.54h-53.94v-29.2h145.13v29.2h-54.83v158.54h-36.36ZM3470.88,1230.09v-187.74h36.36v187.74h-36.36ZM3692,1233.07c-17.48,0-33.08-3.73-46.79-11.18-13.71-7.45-24.49-18.37-32.33-32.78-7.85-14.4-11.77-32.04-11.77-52.9s4.02-37.65,12.07-52.15c8.05-14.5,19.02-25.63,32.93-33.38,13.9-7.75,29.6-11.62,47.08-11.62s33.08,3.78,46.79,11.32c13.71,7.55,24.48,18.53,32.33,32.93,7.85,14.41,11.77,32.03,11.77,52.89s-4.02,37.9-12.07,52.3c-8.05,14.41-19.03,25.43-32.93,33.08-13.91,7.65-29.6,11.47-47.08,11.47ZM3693.19,1205.06c9.73,0,18.52-2.53,26.37-7.6,7.85-5.07,14.1-12.67,18.77-22.8,4.67-10.13,7-22.95,7-38.44s-2.44-29.2-7.3-39.34c-4.87-10.13-11.32-17.63-19.37-22.5-8.05-4.87-16.94-7.3-26.67-7.3s-18.53,2.53-26.37,7.6c-7.85,5.07-14.11,12.72-18.77,22.95-4.67,10.23-7,23.09-7,38.59s2.43,28.31,7.3,38.44c4.87,10.13,11.32,17.73,19.37,22.8,8.05,5.07,16.93,7.6,26.67,7.6ZM3877.95,1230.09v-187.74h32.78l63.18,90.89c5.16,7.75,10.28,15.75,15.35,23.99,5.07,8.25,9.09,15.85,12.07,22.8h.6c-.8-9.33-1.29-18.77-1.49-28.31-.2-9.54-.3-19.07-.3-28.61v-80.76h34.57v187.74h-32.78l-64.37-90.59c-4.97-7.55-9.74-15.35-14.3-23.39-4.57-8.05-8.64-16.34-12.22-24.88h-.6c.79,10.33,1.29,20.46,1.49,30.4.2,9.94.3,19.97.3,30.1v78.37h-34.27ZM4191.14,1233.07c-10.73,0-21.21-1.09-31.44-3.28-10.23-2.18-20.02-5.46-29.35-9.83l8.34-27.71c8.54,4.17,16.88,7.35,25.03,9.54,8.14,2.19,16.69,3.28,25.63,3.28,10.53,0,18.87-2.09,25.03-6.26,6.16-4.17,9.24-10.23,9.24-18.18,0-5.76-2.19-10.88-6.56-15.35-4.37-4.47-13.31-8.89-26.82-13.26l-16.39-5.36c-13.91-4.77-24.99-11.07-33.23-18.92-8.25-7.85-12.37-18.92-12.37-33.23,0-16.49,5.81-29.85,17.43-40.08,11.62-10.23,28.26-15.35,49.92-15.35,11.12,0,21.26,1.04,30.4,3.13,9.14,2.09,17.38,5.12,24.73,9.09l-8.34,28.01c-7.95-3.97-15.6-7-22.95-9.09-7.35-2.09-14.6-3.13-21.75-3.13-10.33,0-18.33,2.14-23.99,6.41-5.66,4.27-8.49,9.98-8.49,17.13,0,6.76,2.38,12.02,7.15,15.79,4.77,3.78,12.22,7.35,22.35,10.73l18.18,5.96c15.5,4.97,27.31,12.07,35.46,21.31,8.14,9.24,12.22,20.12,12.22,32.63,0,10.73-2.73,20.32-8.2,28.76-5.47,8.45-13.36,15.1-23.69,19.97-10.33,4.87-22.85,7.3-37.55,7.3ZM2456.43,155.72v61.92c0,10.38-7.82,18.8-17.46,18.8h-346.39v661.27c0,10.38-7.82,18.8-17.46,18.8h-57.53c-9.64,0-17.46-8.42-17.46-18.8V236.44h-346.39c-9.64,0-17.46-8.42-17.46-18.8v-61.92c0-10.38,7.82-18.8,17.46-18.8h785.23c9.64,0,17.46,8.42,17.46,18.8ZM4251.61,567.66l-15.51-31.95c-36.56-47.17-93.96-67.56-150.14-67.56h-416.52c-33.69,0-61-30.2-61-67.45v-94.32c0-37.25,27.31-67.45,61-67.45h561.03c9.39,0,17-7.61,17-17v-65.51c0-9.39-7.61-17-17-17h-561.03c-83.4,0-151,74.75-151,166.96v94.32c0,126.06,88.06,162.8,148.8,164.42l446.23,2.54c33.69,0,61,30.2,61,67.45v112.02c0,37.2-27.37,67.45-61,67.45h-561.03c-9.39,0-17,7.61-17,17v65.51c0,9.39,7.61,17,17,17h561.03c83.39,0,151-74.75,151-166.96v-112.02c0-23.99-4.6-46.82-12.87-67.45ZM3317.07,139.41c-9.39,0-17,8.42-17,18.8v513.11c0,81.83-59.99,148.17-134,148.17h-372.16c-74.01,0-134-66.34-134-148.17V158.21c0-10.38-7.61-18.8-17-18.8h-56c-9.39,0-17,8.42-17,18.8v511.21c0,65.65,22.81,129.08,64.51,175.82,42.43,47.55,99.14,73.76,159.49,73.76h370.44c59.38,0,116.75-25.23,159.02-71.34,43-46.91,66.7-109.61,66.7-176.34V158.21c0-10.38-7.61-18.8-17-18.8h-56ZM1610.24,527.96c0,52.77-10.35,103.97-30.75,152.21-19.7,46.57-47.88,88.37-83.77,124.27-35.9,35.9-77.7,64.08-124.27,83.78-48.24,20.4-99.45,30.74-152.22,30.74s-103.97-10.34-152.21-30.74c-46.57-19.7-88.37-47.89-124.27-83.78-35.9-35.9-64.08-77.7-83.77-124.27-20.41-48.24-30.75-99.44-30.75-152.21s10.34-103.98,30.75-152.22c3.64-8.61,7.57-17.05,11.79-25.33l62.22,49.52.04-.06,22.36,17.8,87.63,69.72c42.99-117,149.31-199.56,154.94-203.86l20.66-15.81,20.66,15.81c5.59,4.28,111.02,86.14,154.36,202.33l88.22-70.19,12.59-10.02s-.01-.02-.01-.03l72.12-57.39c4.64,8.98,8.97,18.15,12.93,27.52,20.4,48.24,30.75,99.45,30.75,152.22ZM1076.93,793.36c-.12-.21-.25-.42-.37-.63-33.11-56.58-51.34-131.09-51.34-209.79,0-5.69.2-11.34.59-16.94l-104.26-82.96c-2.2,14.74-3.32,29.75-3.32,44.93,0,80.4,31.31,155.99,88.16,212.84,21.16,21.16,44.91,38.78,70.53,52.56ZM1344.04,582.94c0-100.89-85.1-190.74-125.41-227.64-40.29,36.87-125.41,126.74-125.41,227.64,0,66.81,14.93,129.13,42.03,175.44,32.06,54.79,66,62.96,83.38,62.96s51.32-8.18,83.37-62.96c27.11-46.32,42.04-108.63,42.04-175.44ZM1520.25,527.96c0-16.09-1.26-31.99-3.72-47.58l-105.22,83.72c.48,6.22.72,12.5.72,18.83,0,78.7-18.24,153.21-51.35,209.79-.31.53-.62,1.06-.95,1.59,26.33-13.91,50.7-31.86,72.35-53.52,56.85-56.85,88.16-132.44,88.16-212.84ZM1006.4,315.12c56.85-56.85,132.44-88.16,212.85-88.16s155.99,31.31,212.85,88.16c8.91,8.91,17.19,18.28,24.83,28.06l64.58-51.38,5.84-4.65c-9.76-12.45-20.3-24.35-31.61-35.67-35.89-35.89-77.71-64.08-124.27-83.78-48.23-20.4-99.44-30.75-152.21-30.75s-103.98,10.34-152.21,30.75c-46.57,19.7-88.38,47.88-124.27,83.78-11.89,11.89-22.92,24.44-33.09,37.59l70.42,56.03c8.04-10.47,16.8-20.5,26.3-29.99ZM328.54,819.48c-76.23,0-138.02-68.32-138.02-152.61V158.21c0-10.38-7.61-18.8-17-18.8h-56c-9.39,0-17,8.42-17,18.8v508.66c0,67.34,23.72,130.66,66.78,178.28,43.07,47.62,100.33,73.84,161.23,73.84h460.03c9.39,0,17-8.42,17-18.8v-61.92c0-10.38-7.61-18.8-17-18.8h-460.03Z"/>
</svg>