<?xml version="1.0" encoding="UTF-8"?>
<svg id="Layer_3" data-name="Layer 3" xmlns="http://www.w3.org/2000/svg" viewBox="0 0 2035 2035">
  <defs>
    <style>
      .cls-1 {
        fill: #3c446d;
      }

      .cls-2 {
        fill: #16a34a;
      }
    </style>
  </defs>
  <path class="cls-2" d="M604.32,1060.74s120.04-263.72,175.07-342.6c49.63-71.14,235.45-254.87,235.45-254.87,0,0,210.33,193.72,262.23,272.81,46.83,71.38,150.41,319.45,150.41,319.45l456.33-364.09s20.29,321.8,16.62,415.07c-3.36,85.4-69.84,325.26-110.39,400.5-74.09,137.5-271.93,286.78-372.27,344.68-77.37,44.65-279.62,114.64-368.95,114.09-74.27-.46-259.72-31.56-324.14-58.62-68.71-28.86-281.9-166.9-333.66-220.53-102.4-106.09-221.36-365.34-233.02-461.19-21.85-179.62,0-475.75,0-475.75l446.32,311.05Z"/>
  <path class="cls-1" d="M403.74,548.21l-180.74-143.81c26.1-33.74,54.4-65.96,84.91-96.47,92.12-92.12,199.43-164.46,318.94-215.01,123.79-52.36,255.22-78.91,390.64-78.91s266.85,26.55,390.64,78.91c119.51,50.55,226.82,122.89,318.94,215.01,29.03,29.03,56.09,59.58,81.13,91.54l-14.99,11.93-165.73,131.87c-19.59-25.1-40.85-49.15-63.72-72.03-145.91-145.91-339.92-226.27-546.27-226.27s-400.35,80.36-546.27,226.27c-24.36,24.36-46.85,50.09-67.49,76.97ZM2021,1017.51c0,135.42-26.56,266.84-78.91,390.64-50.56,119.51-122.87,226.81-215,318.94-92.13,92.13-199.42,164.47-318.94,215.03-123.8,52.35-255.24,78.89-390.66,78.89s-266.84-26.54-390.64-78.89c-119.51-50.56-226.81-122.9-318.94-215.03-92.13-92.13-164.47-199.42-215-318.94-52.38-123.8-78.91-255.22-78.91-390.64s26.54-266.87,78.91-390.66c9.34-22.1,19.43-43.75,30.26-65l159.7,127.08.1-.15,57.38,45.68,224.91,178.95c110.32-300.28,383.19-512.18,397.64-523.21l53.02-40.57,53.02,40.57c14.35,10.98,284.93,221.08,396.15,519.28l226.42-180.15,32.31-25.71s-.03-.05-.03-.08l185.1-147.3c11.91,23.05,23.02,46.58,33.18,70.62,52.35,123.8,78.91,255.24,78.91,390.66ZM652.26,1698.65c-.31-.54-.64-1.08-.95-1.62-84.97-145.23-131.75-336.44-131.75-538.43,0-14.6.51-29.1,1.51-43.47l-267.58-212.92c-5.65,37.83-8.52,76.35-8.52,115.3,0,206.35,80.35,400.34,226.27,546.26,54.3,54.3,115.25,99.52,181.02,134.88ZM1337.78,1158.6c0-258.94-218.42-489.54-321.86-584.24-103.39,94.62-321.86,325.27-321.86,584.24,0,171.48,38.31,331.41,107.86,450.28,82.27,140.61,169.4,161.6,214,161.6s131.7-20.99,213.98-161.6c69.57-118.87,107.89-278.8,107.89-450.28ZM1790.04,1017.51c0-41.29-3.23-82.09-9.55-122.1l-270.05,214.87c1.23,15.96,1.85,32.08,1.85,48.32,0,201.99-46.81,393.2-131.78,538.43-.8,1.36-1.59,2.72-2.44,4.08,67.57-35.7,130.11-81.76,185.69-137.35,145.92-145.92,226.27-339.9,226.27-546.26Z"/>
</svg>