<?xml version="1.0" encoding="UTF-8"?>
<svg id="Layer_7" data-name="Layer 7" xmlns="http://www.w3.org/2000/svg" viewBox="0 0 4365 1036">
  <defs>
    <style>
      .cls-1 {
        fill: #3c446d;
      }

      .cls-2 {
        fill: #16a34a;
      }
    </style>
  </defs>
  <polygon class="cls-2" points="909.68 427.76 1046.32 529.99 1099.72 384.84 1218.5 316.12 1308.45 403.49 1359.73 526.26 1381.26 529.99 1488.05 479.93 1551.15 423.05 1551.15 568.53 1527.33 699.6 1439.99 793.87 1344.04 859.78 1201.65 859.78 1093.22 859.78 997.58 793.87 939.53 733.58 886.13 592.89 886.13 526.26 886.13 408.35 909.68 427.76"/>
  <path class="cls-1" d="M980.1,344.65l-70.42-56.03c10.17-13.15,21.2-25.7,33.09-37.59,35.89-35.89,77.71-64.08,124.27-83.78,48.23-20.4,99.44-30.75,152.21-30.75s103.98,10.34,152.21,30.75c46.57,19.7,88.38,47.88,124.27,83.78,11.31,11.31,21.86,23.22,31.61,35.67l-5.84,4.65-64.58,51.38c-7.63-9.78-15.92-19.15-24.83-28.06-56.85-56.85-132.44-88.16-212.85-88.16s-155.99,31.31-212.85,88.16c-9.49,9.49-18.26,19.52-26.3,29.99ZM805.57,899.74v-61.92c0-10.38-7.61-18.8-17-18.8h-460.03c-76.23,0-138.02-68.32-138.02-152.61V157.75c0-10.38-7.61-18.8-17-18.8h-56c-9.39,0-17,8.42-17,18.8v508.66c0,67.34,23.72,130.66,66.78,178.28,43.07,47.62,100.33,73.84,161.23,73.84h460.03c9.39,0,17-8.42,17-18.8ZM3373.07,138.96h-56c-9.39,0-17,8.42-17,18.8v513.11c0,81.83-59.99,148.17-134,148.17h-372.16c-74.01,0-134-66.34-134-148.17V157.75c0-10.38-7.61-18.8-17-18.8h-56c-9.39,0-17,8.42-17,18.8v511.21c0,65.65,22.81,129.08,64.51,175.82,42.43,47.55,99.14,73.76,159.49,73.76h370.44c59.38,0,116.75-25.23,159.02-71.34,43-46.91,66.7-109.61,66.7-176.34V157.75c0-10.38-7.61-18.8-17-18.8ZM4251.61,567.2l-15.51-31.95c-36.56-47.17-93.96-67.56-150.14-67.56h-416.52c-33.69,0-61-30.2-61-67.45v-94.32c0-37.25,27.31-67.45,61-67.45h561.03c9.39,0,17-7.61,17-17v-65.51c0-9.39-7.61-17-17-17h-561.03c-83.4,0-151,74.75-151,166.96v94.32c0,126.06,88.06,162.8,148.8,164.42l446.23,2.54c33.69,0,61,30.2,61,67.45v112.02c0,37.2-27.37,67.45-61,67.45h-561.03c-9.39,0-17,7.61-17,17v65.51c0,9.39,7.61,17,17,17h561.03c83.39,0,151-74.75,151-166.96v-112.02c0-23.99-4.6-46.82-12.87-67.45ZM1579.5,375.29c20.4,48.24,30.75,99.45,30.75,152.22s-10.35,103.97-30.75,152.21c-19.7,46.57-47.88,88.37-83.77,124.27-35.9,35.9-77.7,64.08-124.27,83.78-48.24,20.4-99.45,30.74-152.22,30.74s-103.97-10.34-152.21-30.74c-46.57-19.7-88.37-47.89-124.27-83.78-35.9-35.9-64.08-77.7-83.77-124.27-20.41-48.24-30.75-99.44-30.75-152.21s10.34-103.98,30.75-152.22c3.64-8.61,7.57-17.05,11.79-25.33l62.22,49.52.04-.06,22.36,17.8,87.63,69.72c42.99-117,149.31-199.56,154.94-203.86l20.66-15.81,20.66,15.81c5.59,4.28,111.02,86.14,154.36,202.33l88.22-70.19,12.59-10.02s-.01-.02-.01-.03l72.12-57.4c4.64,8.98,8.97,18.15,12.93,27.52ZM1076.93,792.91c-.12-.21-.25-.42-.37-.63-33.11-56.58-51.34-131.09-51.34-209.79,0-5.69.2-11.34.59-16.94l-104.26-82.96c-2.2,14.74-3.32,29.75-3.32,44.93,0,80.4,31.31,155.99,88.16,212.84,21.16,21.16,44.91,38.78,70.53,52.56ZM1344.04,582.48c0-100.89-85.1-190.74-125.41-227.64-40.29,36.87-125.41,126.74-125.41,227.64,0,66.81,14.93,129.13,42.03,175.44,32.06,54.79,66,62.96,83.38,62.96s51.32-8.18,83.37-62.96c27.11-46.32,42.04-108.63,42.04-175.44ZM1520.25,527.51c0-16.09-1.26-31.99-3.72-47.58l-105.22,83.72c.48,6.22.72,12.5.72,18.83,0,78.7-18.24,153.21-51.35,209.79-.31.53-.62,1.06-.95,1.59,26.33-13.91,50.7-31.86,72.35-53.52,56.85-56.85,88.16-132.44,88.16-212.84ZM2438.96,136.47h-785.23c-9.64,0-17.46,8.42-17.46,18.8v61.92c0,10.38,7.82,18.8,17.46,18.8h346.39v661.27c0,10.38,7.82,18.8,17.46,18.8h57.53c9.64,0,17.46-8.42,17.46-18.8V235.99h346.39c9.64,0,17.46-8.42,17.46-18.8v-61.92c0-10.38-7.82-18.8-17.46-18.8Z"/>
</svg>