<?xml version="1.0" encoding="UTF-8"?>
<svg xmlns="http://www.w3.org/2000/svg" version="1.1" viewBox="0 0 4000 4000">
  <!-- Generator: Adobe Illustrator 28.7.0, SVG Export Plug-In . SVG Version: 1.2.0 Build 4)  -->
  <g>
    <g id="katman_1">
      <path d="M171.9,2516.1l-.3-1881.6c0-26.5-1.1-53.7,1.4-80.1,11.2-117,97.7-206.3,212.1-229.3,35.5-7.2,77.5-3.1,114-3.1h210.9s2803.1,0,2803.1,0c32.9,0,67.9-2.6,100.4,1,108.7,12.2,199.2,118.5,215.8,222.7,2.9,18.1,1.4,38.7,1.4,57l.9,1911.5c-20.8,4.5-48.7,1.2-70.4,1.2h-166.4c-2.1-9.1-.7-20.9-.7-30.4l.2-1732.3c-.2-142.1-85.4-199.2-214.5-199.9l-85.9-.2H669.5c-29.6,0-61.2-2.1-90.7,1.1-78.2,8.6-160.1,69.9-168.9,152.6-2.1,19.8-.5,41.3-.5,61.3l.9,1748.3-238.5.2ZM2848,3654.4h-522.8c0,0-1171.2-.9-1171.2-.9.6-46.1-1.9-95.7,20.7-137.4,80.3-147.8,212.3-66.6,320.2-99l10.4-3c81.1-23.2,138.6-93.2,150.9-175.7,1.2-7.7,1-16.3,4.9-23.2l18.2-1.4h664.6c2,13,2.1,26,4.2,38.8,19.8,121.8,121.3,169.8,232.6,169.8h75.4c158.7,0,191.2,90.7,191.9,232.1ZM3825.4,2678.9l.9,80.6c0,94.3-14.6,157-80.5,231.6l-2.6,2.7c-47.1,48.2-105.4,76-172.8,76.4H518.6c-36.4.2-75.7,3.2-111.7-1.4-115.4-14.8-207.9-122.3-228.1-233-9.4-51.6-6.6-106-6.8-158.3,29.3-.4,59.9,2.3,87.6,2.3l3565.8-1ZM3444.9,804.1c0-34.6,9.8-86.8-40.6-89.2l-2815.3.5c-44.9,10.2-30.7,52.3-30.7,89.6v1592.5c0,39-2.7,79.3,0,118.1l2863.1.2h24.4c0-.1-.9-1711.6-.9-1711.6ZM1923.7,1754.6h305.4v77.5h-305.4v-77.5ZM2955.9,1832.2h-661.6v-77.5h661.6v77.5ZM3080.6,1882.1v77.5h-455.5v-77.5h455.5ZM2558.7,1882.1v77.5h-351.7v-77.5h351.7ZM1923.7,1882.1h213.3v77.5h-213.3v-77.5ZM1923.7,2004.9h775.9v77.5h-775.9v-77.5ZM2586.8,2133.8v77.5h-124.6v-77.5h124.6ZM1923.7,2133.8h474.7v77.5h-474.7v-77.5ZM896.2,2359.9l374.2-648.1,374.2,648.1h-748.3ZM1474.7,1978.6l-204.3-353.9-204.3,353.9c-107.8-67.9-179.4-188-179.4-324.9,0-211.9,171.8-383.7,383.7-383.7s383.7,171.8,383.7,383.7-71.6,256.9-179.4,324.9ZM1747.6,1511.1c0,39.4-22.4,73.6-55.3,90.5-25.7-210.2-204.9-373-422-373s-396.3,162.8-422,373c-32.8-16.9-55.3-51.1-55.3-90.5v-466.1c0-56.2,45.6-101.7,101.7-101.7h751.1c56.2,0,101.7,45.6,101.7,101.7v466.1ZM2760.9,2349.1h-837.3v-77.5h837.3v77.5ZM3250,2349.1h-423.8v-77.5h423.8v77.5ZM3250,2211.3h-586v-77.5h586v77.5ZM3250,2082.4h-474.7v-77.5h474.7v77.5ZM3250,1964h-105.9v-77.5h105.9v77.5ZM3250,1832.2h-224.8v-77.5h224.8v77.5ZM3250,1592.9h-1326.3v-649.8h1326.3v649.8Z"/>
    </g>
  </g>
</svg>