<?xml version="1.0" encoding="UTF-8"?>
<svg xmlns="http://www.w3.org/2000/svg" version="1.1" viewBox="0 0 4000 4000">
  <!-- Generator: Adobe Illustrator 28.7.0, SVG Export Plug-In . SVG Version: 1.2.0 Build 4)  -->
  <g>
    <g id="katman_1">
      <path d="M3293.9,552.6H669.5c-29.6,0-61.2-2.1-90.7,1.1-78.2,8.6-160.1,69.9-168.9,152.6-2.1,19.8-.5,41.3-.5,61.3l.9,1748.3-238.5.2-.3-1881.6c0-26.5-1.1-53.7,1.4-80.1,11.2-117,97.7-206.3,212.1-229.3,35.5-7.2,77.5-3.1,114-3.1h210.9s2803.1,0,2803.1,0c32.9,0,67.9-2.6,100.4,1,108.7,12.2,199.2,118.5,215.8,222.7,2.9,18.1,1.4,38.7,1.4,57l.9,1911.5c-20.8,4.5-48.7,1.2-70.4,1.2h-166.4c-2.1-9.1-.7-20.9-.7-30.4l.2-1732.3c-.2-142.1-85.4-199.2-214.5-199.9l-85.9-.2ZM3421.4,2515.7l-2863.1-.2c-2.7-38.8,0-79.1,0-118.1V805c0-37.3-14.1-79.4,30.7-89.6l2815.3-.5c50.3,2.4,40.6,54.6,40.6,89.2l.9,1711.5h-24.4ZM1753.8,1253.2l-410.4,418.9,421.2,424.4c2.6-2,4.4-3.4,6.4-6.1l100.8-93.7-292.4-297.3c-8.3-8.3-21.2-18.2-26.8-28.1l316.2-303.8-114.9-114.3ZM2244.9,1254.6l-115.2,109,309,312.1-317.8,325c37.8,28.1,71.3,67.1,102.8,101.9l426.9-432.2-265.8-268.2c-46.4-48.2-98.7-95-140-147.6ZM3745.7,2991.2l-2.6,2.7c-47.1,48.2-105.4,76-172.8,76.4H518.6c-36.4.2-75.7,3.2-111.7-1.4-115.4-14.8-207.9-122.3-228.1-233-9.4-51.6-6.6-106-6.8-158.3,29.3-.4,59.9,2.3,87.6,2.3l3565.8-1,.9,80.6c0,94.3-14.6,157-80.5,231.6ZM2325.2,3654.3l-1171.2-.8c.6-46.1-1.9-95.7,20.7-137.4,80.3-147.8,212.3-66.6,320.2-99l10.4-3c81.1-23.2,138.6-93.2,150.9-175.7,1.2-7.7,1-16.3,4.9-23.2l18.2-1.4h664.6c2,13,2.1,26,4.2,38.8,19.8,121.8,121.3,169.8,232.6,169.8h75.4c158.7,0,191.2,90.7,191.9,232.1h-522.8Z"/>
    </g>
  </g>
</svg>