<?xml version="1.0" encoding="UTF-8"?>
<svg xmlns="http://www.w3.org/2000/svg" version="1.1" viewBox="0 0 4000 4000">
  <!-- Generator: Adobe Illustrator 28.7.0, SVG Export Plug-In . SVG Version: 1.2.0 Build 4)  -->
  <g>
    <g id="katman_1">
      <path d="M171.9,2516.1l-.3-1881.6c0-26.5-1.1-53.7,1.4-80.1,11.2-117,97.7-206.3,212.1-229.3,35.5-7.2,77.5-3.1,114-3.1h210.9s2803.1,0,2803.1,0c32.9,0,67.9-2.6,100.4,1,108.7,12.2,199.2,118.5,215.8,222.7,2.9,18.1,1.4,38.7,1.4,57l.9,1911.5c-20.8,4.5-48.7,1.2-70.4,1.2h-166.4c-2.1-9.1-.7-20.9-.7-30.4l.2-1732.3c-.2-142.1-85.4-199.2-214.5-199.9l-85.9-.2H669.5c-29.6,0-61.2-2.1-90.7,1.1-78.2,8.6-160.1,69.9-168.9,152.6-2.1,19.8-.5,41.3-.5,61.3l.9,1748.3-238.5.2ZM2656.2,3422.3h-75.4c-111.3,0-212.8-47.9-232.6-169.8-2.1-12.8-2.1-25.8-4.2-38.7h-664.6c0-.1-18.2,1.3-18.2,1.3-3.9,6.9-3.7,15.5-4.9,23.2-12.3,82.5-69.8,152.5-150.9,175.7l-10.4,3c-107.9,32.4-239.9-48.9-320.2,99-22.7,41.8-20.1,91.4-20.7,137.4l1171.2.8h522.8c-.6-141.2-33.1-231.9-191.9-232ZM259.5,2679.9c-27.7,0-58.3-2.6-87.6-2.3.1,52.2-2.7,106.6,6.8,158.3,20.2,110.7,112.7,218.2,228.1,233,36.1,4.6,75.3,1.6,111.7,1.5h3051.7c67.5-.6,125.8-28.3,172.8-76.5l2.6-2.7c65.9-74.6,80.5-137.4,80.5-231.6l-.9-80.6-3565.8,1ZM1710.1,1428.1c-123.5,0-224.2,101-224.2,224.5s100.7,224.2,224.2,224.2,224.5-100.7,224.5-224.2-101-224.5-224.5-224.5ZM2400.8,1793.8c-62.5-21-130.6,12.9-151.6,75.4-21,62.5,12.8,130.5,75.3,151.5,62.5,21,130.7-12.8,151.7-75.2,21-62.5-12.9-130.7-75.3-151.7ZM3445.8,2515.6h-24.4c0,.1-2863.1,0-2863.1,0-2.7-38.8,0-79.1,0-118.1V805c0-37.3-14.1-79.4,30.7-89.6l2815.3-.5c50.3,2.4,40.6,54.6,40.6,89.2l.9,1711.5ZM2101.4,1910.2l-46-92c6-12.6,11.3-25.5,16-38.6l97.6-32.5c13.1-4.4,21.9-16.6,21.9-30.4v-128.2c0-13.8-8.8-26-21.9-30.4l-97.7-32.5c-4.6-13.1-9.9-25.9-16-38.5l46.1-92.1c6.2-12.3,3.7-27.2-6-37l-90.6-90.6c-9.8-9.8-24.6-12.2-37-6l-91.8,45.9c-12.7-6.1-25.6-11.4-38.9-16l-32.5-97.4c-4.4-13.1-16.6-21.9-30.4-21.9h-128.2c-13.8,0-26,8.8-30.4,21.9l-32.5,97.6c-13.1,4.6-26,9.9-38.5,16l-92.1-46c-12.3-6.2-27.2-3.7-37,6l-90.6,90.6c-9.8,9.8-12.2,24.6-6,37l45.9,91.9c-6,12.6-11.4,25.5-16,38.7l-97.5,32.5c-13.1,4.4-21.9,16.6-21.9,30.4v128.2c0,13.8,8.8,26,21.9,30.4l97.8,32.6c4.6,13.1,9.9,25.8,15.9,38.3l-46.1,92.2c-6.2,12.3-3.7,27.2,6,37l90.6,90.7c9.8,9.8,24.6,12.2,37,6l92.1-46.1c12.5,6,25.4,11.3,38.5,15.9l32.6,97.7c4.4,13.1,16.6,21.9,30.4,21.9h128.2c13.8,0,26-8.8,30.4-21.9l32.6-97.9c13-4.6,25.8-9.9,38.2-15.8l92.3,46.2c12.3,6.2,27.2,3.7,37-6l90.6-90.7c9.8-9.8,12.2-24.6,6-37ZM2610.8,1937.6l-43.9-33.1c-.1-7.4-.6-14.8-1.5-22.2l39-38.8c5.2-5.2,6.5-13.1,3.3-19.7l-30.4-61.2c-3.3-6.6-10.4-10.3-17.7-9.3l-54.2,7.6c-5.4-5.2-11-10.1-16.9-14.7v-54.8c.2-7.4-4.5-13.9-11.5-16.3l-64.8-21.8c-7-2.4-14.7,0-19.1,5.9l-33.1,43.8c-7.4.1-14.8.6-22.2,1.5l-38.7-38.9c-5.2-5.2-13.1-6.5-19.7-3.3l-61.2,30.4c-6.6,3.3-10.3,10.4-9.3,17.7l7.6,54.3c-5.2,5.4-10.1,11-14.7,16.9h-54.8c-7.4-.1-13.9,4.6-16.3,11.5l-21.8,64.8c-2.4,7,0,14.7,5.9,19.1l43.9,33.1c.1,7.4.6,14.7,1.5,22.1l-39,38.8c-5.2,5.2-6.5,13.1-3.3,19.7l30.4,61.3c3.3,6.6,10.4,10.3,17.7,9.3l54.4-7.6c5.3,5.2,10.9,10,16.8,14.6v55c-.2,7.4,4.5,13.9,11.5,16.3l64.8,21.8c7,2.4,14.7,0,19.1-5.9l33.1-44c7.4-.1,14.7-.6,22-1.5l38.8,39.1c5.2,5.2,13.1,6.5,19.7,3.3l61.3-30.4c6.6-3.3,10.3-10.4,9.3-17.7l-7.6-54.3c5.2-5.3,10.1-10.9,14.6-16.8h54.9c7.4.2,13.9-4.5,16.3-11.5l21.8-64.8c2.4-7,0-14.7-5.9-19.1ZM2759.6,1361.4l-56.8-42.9c-.1-9.6-.8-19.2-2-28.7l50.5-50.2c6.8-6.7,8.5-17,4.2-25.6l-39.4-79.4c-4.2-8.5-13.5-13.4-22.9-12.1l-70.3,9.8c-7-6.8-14.3-13.1-21.9-19.1l.2-71c0-9.5-6.1-18-15.1-21.1l-84-28.3c-9-3-19,0-24.8,7.7l-42.8,56.8c-9.6.1-19.2.8-28.8,2l-50.2-50.4c-6.7-6.8-17-8.5-25.6-4.2l-79.4,39.4c-8.5,4.2-13.4,13.5-12.1,22.9l9.9,70.3c-6.7,6.9-13.1,14.2-19,21.9l-71.1-.2c-9.5,0-18,6.1-21.1,15.1l-28.2,84c-3,9,0,19,7.7,24.8l56.9,42.9c.1,9.6.8,19.1,2,28.6l-50.6,50.3c-6.8,6.7-8.5,17-4.2,25.6l39.4,79.4c4.2,8.5,13.5,13.4,22.9,12.1l70.5-9.9c6.9,6.7,14.1,13,21.7,18.9l-.2,71.2c0,9.5,6.1,18,15.1,21.1l84,28.3c9,3,19,0,24.8-7.7l43-57c9.5-.1,19.1-.8,28.5-1.9l50.3,50.6c6.7,6.8,17,8.5,25.6,4.2l79.4-39.5c8.5-4.2,13.4-13.5,12.1-22.9l-9.9-70.4c6.7-6.9,13-14.2,19-21.8l71.2.2c9.5,0,18-6.1,21.1-15.1l28.2-84c3-9,0-19-7.7-24.8ZM2487.5,1175c-80.9-27.2-169.2,16.8-196.4,97.7-27.2,80.9,16.6,169.2,97.5,196.4,80.9,27.2,169.3-16.5,196.5-97.5,27.2-80.9-16.7-169.4-97.6-196.6Z"/>
    </g>
  </g>
</svg>